<svg width="512" height="512" viewBox="0 0 512 512" fill="none" xmlns="http://www.w3.org/2000/svg">
<path d="M476.72 171.28L348.72 43.28C344.032 38.5849 338.464 34.8602 332.334 32.3189C326.205 29.7776 319.635 28.4695 313 28.4695C306.365 28.4695 299.795 29.7776 293.666 32.3189C287.536 34.8602 281.968 38.5849 277.28 43.28L35.28 284.56C30.5849 289.248 26.8602 294.816 24.3189 300.946C21.7776 307.075 20.4695 313.645 20.4695 320.28C20.4695 326.915 21.7776 333.485 24.3189 339.614C26.8602 345.744 30.5849 351.312 35.28 356L139.28 460H77.44C74.2574 460 71.2052 461.264 68.9547 463.515C66.7043 465.765 65.44 468.817 65.44 472C65.44 475.183 66.7043 478.235 68.9547 480.485C71.2052 482.736 74.2574 484 77.44 484H451.12C454.303 484 457.355 482.736 459.605 480.485C461.856 478.235 463.12 475.183 463.12 472C463.12 468.817 461.856 465.765 459.605 463.515C457.355 461.264 454.303 460 451.12 460H259.6L476.72 242.72C486.163 233.23 491.464 220.388 491.464 207C491.464 193.612 486.163 180.77 476.72 171.28ZM225.68 459.84H172.96L52.24 339.04C47.2912 334.05 44.5143 327.308 44.5143 320.28C44.5143 313.252 47.2912 306.51 52.24 301.52L164.24 189.52L330.48 355.04L225.68 459.84Z" fill="white"/>
</svg>
